<svg width="50" height="50" viewBox="0 0 50 50" fill="none" xmlns="http://www.w3.org/2000/svg">
<path d="M41 0.5H9C4.30558 0.5 0.5 4.30558 0.5 9V41C0.5 45.6944 4.30558 49.5 9 49.5H41C45.6944 49.5 49.5 45.6944 49.5 41V9C49.5 4.30558 45.6944 0.5 41 0.5Z" fill="#FEFEFE" stroke="#DADADA"/>
<path d="M14.9814 38H21.3096V29.0384H24.5567L29.338 38H36.2414L30.8081 28.0284C33.6846 26.7244 35.3465 24.1548 35.3465 20.5369C35.3465 15.1548 31.6775 11.8182 25.7968 11.8182H14.9814V38ZM21.3096 24.0526V16.919H24.4289C27.2669 16.919 28.7883 18.108 28.7883 20.5369C28.7883 22.9659 27.2669 24.0526 24.4289 24.0526H21.3096Z" fill="#061934"/>
<path d="M14.9814 38H13.9814V39H14.9814V38ZM21.3096 38V39H22.3096V38H21.3096ZM21.3096 29.0384V28.0384H20.3096V29.0384H21.3096ZM24.5567 29.0384L25.439 28.5676L25.1566 28.0384H24.5567V29.0384ZM29.338 38L28.4557 38.4707L28.7381 39H29.338V38ZM36.2414 38V39H37.9251L37.1195 37.5215L36.2414 38ZM30.8081 28.0284L30.3953 27.1176L29.4152 27.5619L29.93 28.5069L30.8081 28.0284ZM14.9814 11.8182V10.8182H13.9814V11.8182H14.9814ZM21.3096 24.0526H20.3096V25.0526H21.3096V24.0526ZM21.3096 16.919V15.919H20.3096V16.919H21.3096ZM14.9814 39H21.3096V37H14.9814V39ZM22.3096 38V29.0384H20.3096V38H22.3096ZM21.3096 30.0384H24.5567V28.0384H21.3096V30.0384ZM23.6744 29.5091L28.4557 38.4707L30.2203 37.5293L25.439 28.5676L23.6744 29.5091ZM29.338 39H36.2414V37H29.338V39ZM37.1195 37.5215L31.6862 27.55L29.93 28.5069L35.3633 38.4785L37.1195 37.5215ZM31.221 28.9392C34.4838 27.4601 36.3465 24.5146 36.3465 20.5369H34.3465C34.3465 23.795 32.8853 25.9888 30.3953 27.1176L31.221 28.9392ZM36.3465 20.5369C36.3465 17.608 35.3408 15.1441 33.4507 13.4204C31.5714 11.7064 28.9217 10.8182 25.7968 10.8182V12.8182C28.5525 12.8182 30.6777 13.5982 32.103 14.8981C33.5177 16.1883 34.3465 18.0838 34.3465 20.5369H36.3465ZM25.7968 10.8182H14.9814V12.8182H25.7968V10.8182ZM13.9814 11.8182V38H15.9814V11.8182H13.9814ZM22.3096 24.0526V16.919H20.3096V24.0526H22.3096ZM21.3096 17.919H24.4289V15.919H21.3096V17.919ZM24.4289 17.919C25.7319 17.919 26.5557 18.1955 27.04 18.5914C27.4872 18.957 27.7883 19.5427 27.7883 20.5369H29.7883C29.7883 19.1022 29.3286 17.879 28.3057 17.0429C27.3198 16.237 25.9639 15.919 24.4289 15.919V17.919ZM27.7883 20.5369C27.7883 21.529 27.4895 22.0793 27.0565 22.4181C26.5753 22.7947 25.7493 23.0526 24.4289 23.0526V25.0526C25.9465 25.0526 27.3002 24.7671 28.2891 23.9931C29.3264 23.1814 29.7883 21.9739 29.7883 20.5369H27.7883ZM24.4289 23.0526H21.3096V25.0526H24.4289V23.0526Z" fill="#061934"/>
<path d="M38.5 42C40.433 42 42 40.433 42 38.5C42 36.567 40.433 35 38.5 35C36.567 35 35 36.567 35 38.5C35 40.433 36.567 42 38.5 42Z" fill="#EA2033"/>
</svg>
